<svg xmlns="http://www.w3.org/2000/svg" viewBox="0 0 75 30" enable-background="new 0 0 75 30"><path d="M5.101.115s-.478.116-.29.739c0 0 .406.695 1.057.275 0 0 .478-.174.101-.565.001 0-.086-.869-.868-.449zm17.09 15.106s-1.043 1.666-1.231 1.767c0 0-.377.188-.768-.13 0 0-.594-.478-.825-1.347 0 0 1.724-2.433 1.651-4.215 0 0 0-1.521-1.304-.84 0 0-1.304.84-1.666 2.375 0 0-.29 1.492.217 2.621 0 0-1.289 1.97-2.231 1.405 0 0-.826-.594-.522-2.578 0 0 .739-.898.449-1.782 0 0-.565-.753-1.086.275 0 0-1.39 3.128-1.941 3.621 0 0-.377-3.968-.29-7.039 0 0 .97-1.767.854-2.926l-.203-1.593s-.319-1.303-1.086-.13l-.348 4.316s-1.376 2.477-3.143 1.999c0 0-.427-1.782-1.253-.507 0 0-.34 1.072-.485 1.246l-1.235 1.521s-.157.275-.27.087l-.403-7.807c-.565-.782-.956-.101-.956-.101-.116.551.232.898.232.898l.173 2.303.246 5.373-1.202 1.087c-4.142 3.78-3.534 6.619-3.534 6.619.159 4.823 3.433 6.344 3.433 6.344 2.433.956 2.549-3.143 2.549-3.143.145-.855-.449-9.849-.449-9.849l-.035-.68 1.078-.971-.058 3.969s.116 1.463 1.318 1.651c0 0 1.289.304 1.955-.826 0 0 1.043-1.448.985-3.056 0 0-.232-1.912-.97-3.071 0 0 1.68-.854 1.912-1.332l.174 5.533s.116 1.014.232 1.144c0 0 .608.826 1.289-.072 0 0 .623-.681.927-1.419 0 0 .536 1.709 1.289 1.984 0 0 1.492.869 2.969-1.332 0 0 .739 1.709 1.941 1.535 0 0 1.043.116 1.753-1.839l.492-1.492c-.001-.001-.218-.132-.624.404zm-17.264 10.718c-.362 1.825-1.55 1.115-1.55 1.115-2.853-1.477-2.81-5.764-2.81-5.764 0-2.795 4.186-6.17 4.186-6.17.246.739.478 4.953.478 4.953.275 2.245-.304 5.866-.304 5.866zm5.045-10.935c.058 1.468-1.13 2.839-1.13 2.839-.511.744-1.091.106-1.091.106-.377-.463-.348-2.172-.348-2.172-.01-1.41.666-3.65.666-3.65.773-.193.995.173.995.173.656.59.908 2.704.908 2.704zm9.261-.667s-.203.463-.212.126c0 0 .174-1.931.415-2.337 0 0 .743-1.139.695-.174 0 0-.019.985-.338 1.477l-.56.908zm20.238 1.147s-2.308 1.68-3.1 2.278c0 0-1.342.627-1.912-.232 0 0-.425-.579-.348-1.033 0 0 1.381-3.08 2.23-4.451 0 0 .492-1.516-.406-1.806 0 0-.695-.406-1.583 1.246 0 0-.956 1.854-1.014 2.443 0 0-.56 1.68-.29 2.665 0 0-.493 1.304-.937-.01 0 0-.347-.676-.309-1.709 0 0 .019-2.452.048-2.723 0 0 .319.27.569.087 0 0 .473-.338-.473-1.188 0 0-.067-2.839-.029-2.907 0 0 .338-1.371-.502-1.419 0 0-.656-.077-.695.666 0 0 .01.348.222.386 0 0 .145 2.125.048 2.443 0 0-1.14-.502-2.395.714 0 0-1.236 1.42-1.004 4.645 0 0 .009 1.93.55 2.471 0 0 .801 1.005 1.68-.164.879-1.169 1.12-1.844 1.12-1.844s.415 1.525.975 1.863c0 0 .627.676 1.342-.444 0 0 .628 1.275 1.564 1.477 0 0 .985.377 2.008-.386 0 0 2.685-2.269 3.119-2.955.005.003.159-.499-.478-.113zm-8.719-1.236c-.019.84-1.545 2.964-1.545 2.964-.454.627-.753-.83-.753-.83-.184-2.134.686-4.664.686-4.664.386-.821 1.738-.483 1.738-.483.491.175-.126 3.013-.126 3.013zm3.012 1.439l-.029-.184s.647-3.013 1.188-3.418c0 0 .55-.338.435.213-.001 0-.039.995-1.594 3.389zm10.013-3.096s.029 3.814.164 4.432c.135.618.444.85.444.85s.744.782 1.506-.435c0 0 .676-1.207.657-1.545 0 0-.01 1.641.482 2.211 0 0 .551.908 1.641.174 0 0 1.96-2.463 2.048-3.93 0 0 .097-.338.231.377 0 0 .618 2.83.85 3.167 0 0 .377 1.052 1.207.907 0 0 .425-.145.145-.541 0 0-.415-.27-.637-1.246 0 0-.82-3.804-.888-4.239 0 0-.338-1.053-1.159-.184 0 0-.521 1.477-.859 2.298 0 0-.773 1.854-1.42 2.443 0 0-.56.608-.599-.666l-.135-3.882s-.251-1.545-1.062-.261c0 0-.57 2.009-.628 2.684 0 0-.222.859-.57 1.429 0 0-.309.541-.367-.241 0 0-.232-2.298-.106-3.331 0 0 .319-.493.29-.763 0 0-.01-.927-.84-.84 0 0-.493-.01-.676.618.002.003.001.544.281.514zm7.03-4.76s-.695-.086-.598.483c0 0 .087.676.888.647 0 0 .502-.009.608-.492 0 0 .55-.106.232-.435-.001 0-.532-.589-1.13-.203zm24.168 7.039s-.184-1.284-.705-.096c0 0-.405 1.632-1.159 2.703 0 0-.579.898-1.072-.415 0 0-.656-1.681-.647-3.167l.058-3.949s.164-1.593-2.028-.782c0 0-1.044.531-1.613 2.222 0 0-.444 2.134-.473 2.568 0 0-.338.56-.454.628 0 0-.115.029-.048-.628 0 0 .087-2.385-.203-2.877 0 0-.57-1.304-1.719.183 0 0-.772 1.873.647 4.422 0 0 .039.85-.801 1.255 0 0-.696.105-1.082-.802 0 0-.415-.703-.415-2.422 0 0 .01-5.37.067-6.248 0 0-.038-.435.319-.686 0 0 2.375-.734 3.022-1.651 0 0 .125-.348-.753-.048 0 0-1.853.715-2.452.724 0 0 .289-2.202.009-2.549 0 0-.599-.628-.888.29 0 0-.144.241.155.628 0 0 .01 1.429-.116 1.777 0 0-.531.212-.966.048 0 0-.656-.048-.338.879 0 0 .165.531 1.082.425 0 0-.222 6.421.019 6.981 0 0-.734 1.294-1.178 1.535 0 0-.493.473-.753-.193 0 0-.927-2.201-1.081-2.298 0 0-.56-.696-1.381.019 0 0-.541 1.14-.686 1.748 0 0-.145-2.965-.435-3.496 0 0-.087-.984-.917-.975 0 0-.743.048-.724 1.197 0 0-.154 1.352-.435 2.028 0 0-.473 1.477-.666 1.863 0 0-.556 1.005-.52 1.903 0 0-.56.386-.039.782 0 0 .686.512 1.091-.183 0 0 .213-.376.02-.792l.415-1.709s.772-1.883.85-2.907c0 0 .184-.666.242.106 0 0 .222 2.375.145 3.302 0 0-.251.329-.048.541 0 0 .773 1.071 1.613-.415 0 0 .335-.686.483-1.332 0 0 .289-.879.579-.299 0 0 .732 1.573 1.033 1.854 0 0 .674.743 1.446.115 0 0 .956-.56 1.055-1.313 0 0 .145.772.252.917 0 0 1.147 2.327 2.344 1.564 0 0 .843-.357 1.229-1.341 0 0 .791.415 1.322-.947 0 0 .675-1.255.771-2.955 0 0 .29-2.028 1.353-2.53 0 0 .647-.367.637.435 0 0 .211 4.045.279 4.519 0 0 .204 2.993 1.246 3.631 0 0 .773.647 1.564-.145-.001-.001 1.699-2.512 1.448-3.642zm-9-.613s-.601-1.629-.427-1.861c0 0 .558-.782.71.159l-.283 1.702z" fill="#232E38"/></svg>